# xmcd
#
# Track frame offsets: 
#        150
#        12801
#        37739
#        58397
#        80015
#        95100
#        107054
#        130588
#        148229
#        165793
#
# Disc length: 2417 seconds
#
# Revision: 0
# Processed by: cddbd v1.5.2PL0 Copyright (c) Steve Scherf et al.
# Submitted via: ExactAudioCopy v0.99pb4
#
DISCID=7d096f0a
DTITLE=The Alan Craig Project - Not Black and White
DYEAR=2010
DGENRE=Blues
TTITLE0=Panda-monium
TTITLE1=Don't Come Back
TTITLE2=Lowdown and Dirty
TTITLE3=Had My Jam
TTITLE4=Tribute to Timmy
TTITLE5=The Voo
TTITLE6=Not Black and White
TTITLE7=Lyin' Dog
TTITLE8=Pressure Drop
TTITLE9=One More
EXTD=
EXTT0=
EXTT1=
EXTT2=
EXTT3=
EXTT4=
EXTT5=
EXTT6=
EXTT7=
EXTT8=
EXTT9=
PLAYORDER=
